<?xml version="1.0" standalone="no"?>
<svg xmlns="http://www.w3.org/2000/svg" viewBox="0 0 1440 320">
    <path fill="#b0d2ff" fill-opacity="1"
          d="M0,192L26.7,176C53.3,160,107,128,160,138.7C213.3,149,267,203,320,234.7C373.3,267,427,277,480,261.3C533.3,245,587,203,640,160C693.3,117,747,75,800,53.3C853.3,32,907,32,960,80C1013.3,128,1067,224,1120,218.7C1173.3,213,1227,107,1280,69.3C1333.3,32,1387,64,1413,80L1440,96L1440,0L1413.3,0C1386.7,0,1333,0,1280,0C1226.7,0,1173,0,1120,0C1066.7,0,1013,0,960,0C906.7,0,853,0,800,0C746.7,0,693,0,640,0C586.7,0,533,0,480,0C426.7,0,373,0,320,0C266.7,0,213,0,160,0C106.7,0,53,0,27,0L0,0Z"></path>
</svg>